<?xml version="1.0" encoding="utf-8"?>
<!-- Generator: Adobe Illustrator 16.0.0, SVG Export Plug-In . SVG Version: 6.00 Build 0)  -->
<!DOCTYPE svg PUBLIC "-//W3C//DTD SVG 1.1//EN" "http://www.w3.org/Graphics/SVG/1.1/DTD/svg11.dtd">
<svg version="1.1" id="图层_1" xmlns="http://www.w3.org/2000/svg" xmlns:xlink="http://www.w3.org/1999/xlink" x="0px" y="0px"
	 width="114px" height="50px" viewBox="0 0 114 50" enable-background="new 0 0 114 50" xml:space="preserve">
<g>
	<g>
		<path fill="#FFFFFF" d="M41.358,15.583c0,0.611-0.495,1.105-1.104,1.105c-0.609,0-1.104-0.494-1.104-1.105
			c0-0.605,0.495-1.101,1.104-1.101C40.863,14.482,41.358,14.978,41.358,15.583z"/>
		<circle fill="#FFFFFF" cx="27.42" cy="27.361" r="0.922"/>
		<circle fill="#FFFFFF" cx="70.841" cy="5.65" r="2.179"/>
		<path fill="#FFFFFF" d="M87.502,23.099c0,0.877-0.711,1.588-1.589,1.588c-0.878,0-1.589-0.711-1.589-1.588
			c0-0.88,0.711-1.59,1.589-1.59C86.791,21.509,87.502,22.219,87.502,23.099z"/>
		<circle fill="#FFFFFF" cx="54.399" cy="26.257" r="1.557"/>
		<circle fill="#FFFFFF" cx="28.735" cy="26.046" r="0.393"/>
		<circle fill="#FFFFFF" cx="30.637" cy="24.315" r="0.455"/>
		<circle fill="#FFFFFF" cx="32.539" cy="22.584" r="0.516"/>
		<circle fill="#FFFFFF" cx="34.441" cy="20.852" r="0.578"/>
		<circle fill="#FFFFFF" cx="36.342" cy="19.12" r="0.639"/>
		<circle fill="#FFFFFF" cx="38.244" cy="17.39" r="0.701"/>
		<circle fill="#FFFFFF" cx="42.411" cy="17.053" r="0.701"/>
		<circle fill="#FFFFFF" cx="44.434" cy="18.585" r="0.64"/>
		<circle fill="#FFFFFF" cx="46.456" cy="20.116" r="0.577"/>
		<circle fill="#FFFFFF" cx="48.479" cy="21.649" r="0.515"/>
		<circle fill="#FFFFFF" cx="50.5" cy="23.18" r="0.455"/>
		<circle fill="#FFFFFF" cx="52.522" cy="24.712" r="0.393"/>
		<circle fill="#FFFFFF" cx="68.128" cy="8.76" r="0.801"/>
		<circle fill="#FFFFFF" cx="66.388" cy="10.953" r="0.758"/>
		<circle fill="#FFFFFF" cx="64.65" cy="13.146" r="0.715"/>
		<circle fill="#FFFFFF" cx="62.911" cy="15.34" r="0.672"/>
		<circle fill="#FFFFFF" cx="61.173" cy="17.532" r="0.629"/>
		<circle fill="#FFFFFF" cx="59.434" cy="19.726" r="0.587"/>
		<circle fill="#FFFFFF" cx="57.695" cy="21.919" r="0.544"/>
		<circle fill="#FFFFFF" cx="55.956" cy="24.111" r="0.5"/>
		<circle fill="#FFFFFF" cx="84.324" cy="21.184" r="0.5"/>
		<circle fill="#FFFFFF" cx="82.517" cy="19.091" r="0.551"/>
		<circle fill="#FFFFFF" cx="80.712" cy="17" r="0.601"/>
		<circle fill="#FFFFFF" cx="78.906" cy="14.907" r="0.651"/>
		<circle fill="#FFFFFF" cx="77.101" cy="12.815" r="0.701"/>
		<circle fill="#FFFFFF" cx="75.296" cy="10.724" r="0.75"/>
		<circle fill="#FFFFFF" cx="73.49" cy="8.631" r="0.801"/>
	</g>
	<path fill="#FFFFFF" d="M35.118,37.795c0,0.516-0.117,0.988-0.348,1.418c-0.231,0.431-0.614,0.787-1.146,1.071v0.035
		c0.295,0.103,0.567,0.232,0.813,0.389c0.247,0.157,0.457,0.342,0.631,0.56s0.312,0.463,0.41,0.735
		c0.097,0.271,0.147,0.576,0.147,0.915c0,0.29-0.048,0.603-0.138,0.934c-0.094,0.333-0.254,0.653-0.485,0.965
		s-0.539,0.597-0.924,0.858c-0.386,0.261-0.874,0.469-1.459,0.623c-0.149,0.035-0.31,0.067-0.485,0.097
		c-0.174,0.03-0.37,0.056-0.583,0.077c-0.214,0.02-0.451,0.033-0.711,0.044c-0.262,0.009-0.554,0.013-0.88,0.013h-3.46v-11.9h4.136
		c0.883,0,1.595,0.089,2.135,0.267c0.402,0.132,0.753,0.302,1.048,0.513c0.296,0.209,0.542,0.445,0.734,0.701
		c0.192,0.26,0.335,0.531,0.427,0.819C35.07,37.216,35.118,37.505,35.118,37.795z M30.642,39.53c0.594,0,1.036-0.059,1.327-0.179
		c0.326-0.137,0.559-0.324,0.698-0.564c0.139-0.241,0.208-0.511,0.208-0.813c0-0.314-0.08-0.596-0.24-0.84
		c-0.16-0.248-0.433-0.43-0.819-0.549c-0.16-0.047-0.347-0.081-0.56-0.102c-0.214-0.021-0.478-0.031-0.792-0.031h-1.788v3.078
		H30.642z M28.677,41.353v3.354H30.1c0.38,0,0.706-0.012,0.979-0.031c0.272-0.021,0.507-0.057,0.702-0.103
		c0.303-0.066,0.554-0.152,0.756-0.263c0.201-0.107,0.365-0.236,0.489-0.373c0.125-0.139,0.214-0.294,0.268-0.464
		c0.053-0.169,0.079-0.347,0.079-0.538c0-0.332-0.092-0.623-0.275-0.869c-0.185-0.252-0.471-0.437-0.864-0.563
		c-0.171-0.052-0.373-0.092-0.604-0.116c-0.231-0.022-0.527-0.034-0.89-0.034H28.677z"/>
	<path fill="#FFFFFF" d="M53.31,46.528v-11.9h2.18v11.9H53.31z"/>
	<path fill="#FFFFFF" d="M83.669,46.528h-2.18V36.452h-3.842v-1.824h9.855v1.824h-3.833V46.528z"/>
</g>
</svg>
